<?xml version="1.0" encoding="UTF-8" standalone="no"?>
<!-- Created with Inkscape (http://www.inkscape.org/) -->

<svg
   width="174.05682mm"
   height="144.77087mm"
   viewBox="0 0 174.05682 144.77087"
   version="1.1"
   id="svg737"
   inkscape:version="1.2.2 (b0a8486541, 2022-12-01)"
   sodipodi:docname="mitochondria.svg"
   xmlns:inkscape="http://www.inkscape.org/namespaces/inkscape"
   xmlns:sodipodi="http://sodipodi.sourceforge.net/DTD/sodipodi-0.dtd"
   xmlns="http://www.w3.org/2000/svg"
   xmlns:svg="http://www.w3.org/2000/svg">
  <sodipodi:namedview
     id="namedview739"
     pagecolor="#ffffff"
     bordercolor="#000000"
     borderopacity="0.25"
     inkscape:showpageshadow="2"
     inkscape:pageopacity="0.0"
     inkscape:pagecheckerboard="0"
     inkscape:deskcolor="#d1d1d1"
     inkscape:document-units="mm"
     showgrid="false"
     inkscape:zoom="0.7483165"
     inkscape:cx="-20.713161"
     inkscape:cy="118.93363"
     inkscape:window-width="1920"
     inkscape:window-height="986"
     inkscape:window-x="1920"
     inkscape:window-y="30"
     inkscape:window-maximized="1"
     inkscape:current-layer="g368" />
  <defs
     id="defs734" />
  <g
     inkscape:label="Layer 1"
     inkscape:groupmode="layer"
     id="layer1"
     transform="translate(-75.929424,-117.20896)">
    <g
       id="g268"
       transform="matrix(0.35277777,0,0,-0.35277777,58.861517,389.27367)">
      <path
         d="m 467.745,569.026 c 0,-29.225 -7.852,-57.94 -22.791,-83.254 -14.938,-25.313 -36.397,-46.346 -62.248,-60.973 -25.852,-14.627 -55.191,-22.308 -85.04,-22.308 -29.877,0 -59.216,7.681 -85.068,22.308 -25.852,14.627 -47.31,35.66 -62.248,60.973 -14.939,25.314 -22.791,54.029 -22.791,83.254 0,29.254 7.852,57.969 22.791,83.282 14.938,25.313 36.396,46.346 62.248,60.973 25.852,14.627 55.191,22.309 85.04,22.309 29.877,0 59.216,-7.682 85.068,-22.309 25.851,-14.627 47.31,-35.66 62.248,-60.973 14.939,-25.313 22.791,-54.028 22.791,-83.254 z"
         style="fill:none;stroke:#000000;stroke-width:6.00935;stroke-linecap:butt;stroke-linejoin:round;stroke-miterlimit:10;stroke-dasharray:none;stroke-opacity:1"
         id="path270" />
    </g>
    <path
       d="m 173.87166,147.284 c 0,0.43003 -0.1203,0.86995 -0.34008,1.24989 -0.22013,0.37994 -0.53023,0.69003 -0.91017,0.91017 -0.37994,0.21978 -0.81985,0.33972 -1.24989,0.33972 -0.43991,0 -0.88018,-0.11994 -1.26012,-0.33972 -0.37994,-0.22014 -0.69003,-0.53023 -0.90982,-0.91017 -0.22013,-0.37994 -0.34007,-0.81986 -0.34007,-1.24989 0,-0.43992 0.11994,-0.88018 0.34007,-1.26012 0.21979,-0.37995 0.52988,-0.69004 0.90982,-0.90982 0.37994,-0.22013 0.82021,-0.34008 1.26012,-0.34008 0.43004,0 0.86995,0.11995 1.24989,0.34008 0.37994,0.21978 0.69004,0.52987 0.91017,0.90982 0.21978,0.37994 0.34008,0.8202 0.34008,1.26012 z"
       style="fill:#729fcf;fill-opacity:1;fill-rule:evenodd;stroke:none;stroke-width:0.352778"
       id="path272" />
    <g
       id="g274"
       transform="matrix(0.35277777,0,0,-0.35277777,58.861517,389.27367)">
      <path
         d="m 326.013,685.955 c 0,-1.219 -0.341,-2.466 -0.964,-3.543 -0.624,-1.077 -1.503,-1.956 -2.58,-2.58 -1.077,-0.623 -2.324,-0.963 -3.543,-0.963 -1.247,0 -2.495,0.34 -3.572,0.963 -1.077,0.624 -1.956,1.503 -2.579,2.58 -0.624,1.077 -0.964,2.324 -0.964,3.543 0,1.247 0.34,2.495 0.964,3.572 0.623,1.077 1.502,1.956 2.579,2.579 1.077,0.624 2.325,0.964 3.572,0.964 1.219,0 2.466,-0.34 3.543,-0.964 1.077,-0.623 1.956,-1.502 2.58,-2.579 0.623,-1.077 0.964,-2.325 0.964,-3.572 z"
         style="fill:none;stroke:#3465a4;stroke-width:0.75;stroke-linecap:butt;stroke-linejoin:round;stroke-miterlimit:10;stroke-dasharray:none;stroke-opacity:1"
         id="path276" />
    </g>
    <path
       d="m 196.37147,172.28395 c 0,0.43003 -0.11994,0.86995 -0.34008,1.24989 -0.21978,0.37994 -0.52987,0.69003 -0.90981,0.91017 -0.37994,0.21978 -0.82021,0.34007 -1.24989,0.34007 -0.44027,0 -0.88018,-0.12029 -1.26013,-0.34007 -0.37994,-0.22014 -0.69003,-0.53023 -0.91016,-0.91017 -0.21978,-0.37994 -0.33973,-0.81986 -0.33973,-1.24989 0,-0.43992 0.11995,-0.87983 0.33973,-1.26013 0.22013,-0.37994 0.53022,-0.69003 0.91016,-0.90981 0.37995,-0.22013 0.81986,-0.34008 1.26013,-0.34008 0.42968,0 0.86995,0.11995 1.24989,0.34008 0.37994,0.21978 0.69003,0.52987 0.90981,0.90981 0.22014,0.3803 0.34008,0.82021 0.34008,1.26013 z"
       style="fill:#729fcf;fill-opacity:1;fill-rule:evenodd;stroke:none;stroke-width:0.352778"
       id="path278" />
    <g
       id="g280"
       transform="matrix(0.35277777,0,0,-0.35277777,58.861517,389.27367)">
      <path
         d="m 389.792,615.089 c 0,-1.219 -0.34,-2.466 -0.964,-3.543 -0.623,-1.077 -1.502,-1.956 -2.579,-2.58 -1.077,-0.623 -2.325,-0.964 -3.543,-0.964 -1.248,0 -2.495,0.341 -3.572,0.964 -1.077,0.624 -1.956,1.503 -2.58,2.58 -0.623,1.077 -0.963,2.324 -0.963,3.543 0,1.247 0.34,2.494 0.963,3.572 0.624,1.077 1.503,1.956 2.58,2.579 1.077,0.624 2.324,0.964 3.572,0.964 1.218,0 2.466,-0.34 3.543,-0.964 1.077,-0.623 1.956,-1.502 2.579,-2.579 0.624,-1.078 0.964,-2.325 0.964,-3.572 z"
         style="fill:none;stroke:#3465a4;stroke-width:0.75;stroke-linecap:butt;stroke-linejoin:round;stroke-miterlimit:10;stroke-dasharray:none;stroke-opacity:1"
         id="path282" />
    </g>
    <path
       d="m 141.37165,217.27405 c 0,0.43991 -0.1203,0.87983 -0.34008,1.25977 -0.22013,0.38029 -0.53022,0.69003 -0.91016,0.91016 -0.37994,0.22014 -0.81986,0.34008 -1.24989,0.34008 -0.43992,0 -0.87983,-0.11994 -1.26013,-0.34008 -0.37994,-0.22013 -0.69003,-0.52987 -0.90981,-0.91016 -0.22013,-0.37994 -0.34008,-0.81986 -0.34008,-1.25977 0,-0.43004 0.11995,-0.86995 0.34008,-1.25025 0.21978,-0.37994 0.52987,-0.69003 0.90981,-0.90981 0.3803,-0.22013 0.82021,-0.34008 1.26013,-0.34008 0.43003,0 0.86995,0.11995 1.24989,0.34008 0.37994,0.21978 0.69003,0.52987 0.91016,0.90981 0.21978,0.3803 0.34008,0.82021 0.34008,1.25025 z"
       style="fill:#729fcf;fill-opacity:1;fill-rule:evenodd;stroke:none;stroke-width:0.352778"
       id="path284" />
    <g
       id="g286"
       transform="matrix(0.35277777,0,0,-0.35277777,58.861517,389.27367)">
      <path
         d="m 233.887,487.558 c 0,-1.247 -0.341,-2.494 -0.964,-3.571 -0.624,-1.078 -1.503,-1.956 -2.58,-2.58 -1.077,-0.624 -2.324,-0.964 -3.543,-0.964 -1.247,0 -2.494,0.34 -3.572,0.964 -1.077,0.624 -1.956,1.502 -2.579,2.58 -0.624,1.077 -0.964,2.324 -0.964,3.571 0,1.219 0.34,2.466 0.964,3.544 0.623,1.077 1.502,1.956 2.579,2.579 1.078,0.624 2.325,0.964 3.572,0.964 1.219,0 2.466,-0.34 3.543,-0.964 1.077,-0.623 1.956,-1.502 2.58,-2.579 0.623,-1.078 0.964,-2.325 0.964,-3.544 z"
         style="fill:none;stroke:#3465a4;stroke-width:0.75;stroke-linecap:butt;stroke-linejoin:round;stroke-miterlimit:10;stroke-dasharray:none;stroke-opacity:1"
         id="path288" />
    </g>
    <path
       d="m 171.37152,219.78406 c 0,0.43004 -0.11994,0.86995 -0.34008,1.24989 -0.21978,0.37995 -0.52987,0.69004 -0.90981,0.91017 -0.37994,0.21978 -0.82021,0.33973 -1.25025,0.33973 -0.43991,0 -0.87982,-0.11995 -1.25976,-0.33973 -0.37995,-0.22013 -0.69004,-0.53022 -0.91017,-0.91017 -0.21978,-0.37994 -0.34008,-0.81985 -0.34008,-1.24989 0,-0.44026 0.1203,-0.88018 0.34008,-1.26012 0.22013,-0.37994 0.53022,-0.69003 0.91017,-0.91017 0.37994,-0.21978 0.81985,-0.33972 1.25976,-0.33972 0.43004,0 0.87031,0.11994 1.25025,0.33972 0.37994,0.22014 0.69003,0.53023 0.90981,0.91017 0.22014,0.37994 0.34008,0.81986 0.34008,1.26012 z"
       style="fill:#729fcf;fill-opacity:1;fill-rule:evenodd;stroke:none;stroke-width:0.352778"
       id="path290" />
    <g
       id="g292"
       transform="matrix(0.35277777,0,0,-0.35277777,58.861517,389.27367)">
      <path
         d="m 318.926,480.443 c 0,-1.219 -0.34,-2.466 -0.964,-3.543 -0.623,-1.077 -1.502,-1.956 -2.579,-2.58 -1.077,-0.623 -2.325,-0.963 -3.544,-0.963 -1.247,0 -2.494,0.34 -3.571,0.963 -1.077,0.624 -1.956,1.503 -2.58,2.58 -0.623,1.077 -0.964,2.324 -0.964,3.543 0,1.248 0.341,2.495 0.964,3.572 0.624,1.077 1.503,1.956 2.58,2.58 1.077,0.623 2.324,0.963 3.571,0.963 1.219,0 2.467,-0.34 3.544,-0.963 1.077,-0.624 1.956,-1.503 2.579,-2.58 0.624,-1.077 0.964,-2.324 0.964,-3.572 z"
         style="fill:none;stroke:#3465a4;stroke-width:0.75;stroke-linecap:butt;stroke-linejoin:round;stroke-miterlimit:10;stroke-dasharray:none;stroke-opacity:1"
         id="path294" />
    </g>
    <path
       d="m 146.37157,162.28411 c 0,0.42968 -0.11994,0.86995 -0.34008,1.24989 -0.22013,0.37994 -0.52987,0.69003 -0.90981,0.90981 -0.38029,0.22014 -0.82021,0.34008 -1.25024,0.34008 -0.43992,0 -0.87983,-0.11994 -1.25977,-0.34008 -0.3803,-0.21978 -0.69004,-0.52987 -0.91017,-0.90981 -0.22013,-0.37994 -0.34008,-0.82021 -0.34008,-1.24989 0,-0.44027 0.11995,-0.88018 0.34008,-1.26012 0.22013,-0.37995 0.52987,-0.69004 0.91017,-0.91017 0.37994,-0.21978 0.81985,-0.33973 1.25977,-0.33973 0.43003,0 0.86995,0.11995 1.25024,0.33973 0.37994,0.22013 0.68968,0.53022 0.90981,0.91017 0.22014,0.37994 0.34008,0.81985 0.34008,1.26012 z"
       style="fill:#729fcf;fill-opacity:1;fill-rule:evenodd;stroke:none;stroke-width:0.352778"
       id="path296" />
    <g
       id="g298"
       transform="matrix(0.35277777,0,0,-0.35277777,58.861517,389.27367)">
      <path
         d="m 248.06,643.435 c 0,-1.218 -0.34,-2.466 -0.964,-3.543 -0.624,-1.077 -1.502,-1.956 -2.579,-2.579 -1.078,-0.624 -2.325,-0.964 -3.544,-0.964 -1.247,0 -2.494,0.34 -3.571,0.964 -1.078,0.623 -1.956,1.502 -2.58,2.579 -0.624,1.077 -0.964,2.325 -0.964,3.543 0,1.248 0.34,2.495 0.964,3.572 0.624,1.077 1.502,1.956 2.58,2.58 1.077,0.623 2.324,0.963 3.571,0.963 1.219,0 2.466,-0.34 3.544,-0.963 1.077,-0.624 1.955,-1.503 2.579,-2.58 0.624,-1.077 0.964,-2.324 0.964,-3.572 z"
         style="fill:none;stroke:#3465a4;stroke-width:0.75;stroke-linecap:butt;stroke-linejoin:round;stroke-miterlimit:10;stroke-dasharray:none;stroke-opacity:1"
         id="path300" />
    </g>
    <path
       d="m 123.8714,202.28382 c 0,0.43003 -0.11994,0.8703 -0.33972,1.25024 -0.22013,0.37994 -0.53022,0.69003 -0.91017,0.90981 -0.37994,0.22014 -0.81985,0.34008 -1.24989,0.34008 -0.44026,0 -0.88018,-0.11994 -1.26012,-0.34008 -0.37994,-0.21978 -0.69003,-0.52987 -0.90981,-0.90981 -0.22014,-0.37994 -0.34008,-0.82021 -0.34008,-1.25024 0,-0.43992 0.11994,-0.87983 0.34008,-1.25977 0.21978,-0.37995 0.52987,-0.69004 0.90981,-0.91017 0.37994,-0.21978 0.81986,-0.34008 1.26012,-0.34008 0.43004,0 0.86995,0.1203 1.24989,0.34008 0.37995,0.22013 0.69004,0.53022 0.91017,0.91017 0.21978,0.37994 0.33972,0.81985 0.33972,1.25977 z"
       style="fill:#729fcf;fill-opacity:1;fill-rule:evenodd;stroke:none;stroke-width:0.352778"
       id="path302" />
    <g
       id="g304"
       transform="matrix(0.35277777,0,0,-0.35277777,58.861517,389.27367)">
      <path
         d="m 184.28,530.05 c 0,-1.219 -0.34,-2.467 -0.963,-3.544 -0.624,-1.077 -1.503,-1.956 -2.58,-2.579 -1.077,-0.624 -2.324,-0.964 -3.543,-0.964 -1.248,0 -2.495,0.34 -3.572,0.964 -1.077,0.623 -1.956,1.502 -2.579,2.579 -0.624,1.077 -0.964,2.325 -0.964,3.544 0,1.247 0.34,2.494 0.964,3.571 0.623,1.077 1.502,1.956 2.579,2.58 1.077,0.623 2.324,0.964 3.572,0.964 1.219,0 2.466,-0.341 3.543,-0.964 1.077,-0.624 1.956,-1.503 2.58,-2.58 0.623,-1.077 0.963,-2.324 0.963,-3.571 z"
         style="fill:none;stroke:#3465a4;stroke-width:0.75;stroke-linecap:butt;stroke-linejoin:round;stroke-miterlimit:10;stroke-dasharray:none;stroke-opacity:1"
         id="path306" />
    </g>
    <path
       d="m 128.87168,162.28411 c 0,0.42968 -0.1203,0.86995 -0.34008,1.24989 -0.22013,0.37994 -0.53023,0.69003 -0.91017,0.90981 -0.37994,0.22014 -0.81985,0.34008 -1.24989,0.34008 -0.43991,0 -0.88018,-0.11994 -1.26012,-0.34008 -0.37994,-0.21978 -0.69003,-0.52987 -0.90982,-0.90981 -0.22013,-0.37994 -0.34007,-0.82021 -0.34007,-1.24989 0,-0.44027 0.11994,-0.88018 0.34007,-1.26012 0.21979,-0.37995 0.52988,-0.69004 0.90982,-0.91017 0.37994,-0.21978 0.82021,-0.33973 1.26012,-0.33973 0.43004,0 0.86995,0.11995 1.24989,0.33973 0.37994,0.22013 0.69004,0.53022 0.91017,0.91017 0.21978,0.37994 0.34008,0.81985 0.34008,1.26012 z"
       style="fill:#729fcf;fill-opacity:1;fill-rule:evenodd;stroke:none;stroke-width:0.352778"
       id="path308" />
    <g
       id="g310"
       transform="matrix(0.35277777,0,0,-0.35277777,58.861517,389.27367)">
      <path
         d="m 198.454,643.435 c 0,-1.218 -0.341,-2.466 -0.964,-3.543 -0.624,-1.077 -1.503,-1.956 -2.58,-2.579 -1.077,-0.624 -2.324,-0.964 -3.543,-0.964 -1.247,0 -2.495,0.34 -3.572,0.964 -1.077,0.623 -1.956,1.502 -2.579,2.579 -0.624,1.077 -0.964,2.325 -0.964,3.543 0,1.248 0.34,2.495 0.964,3.572 0.623,1.077 1.502,1.956 2.579,2.58 1.077,0.623 2.325,0.963 3.572,0.963 1.219,0 2.466,-0.34 3.543,-0.963 1.077,-0.624 1.956,-1.503 2.58,-2.58 0.623,-1.077 0.964,-2.324 0.964,-3.572 z"
         style="fill:none;stroke:#3465a4;stroke-width:0.75;stroke-linecap:butt;stroke-linejoin:round;stroke-miterlimit:10;stroke-dasharray:none;stroke-opacity:1"
         id="path312" />
    </g>
    <path
       d="m 191.37155,214.78379 c 0,0.43004 -0.11994,0.8703 -0.34008,1.25024 -0.22013,0.37995 -0.52987,0.69004 -0.90981,0.90982 -0.3803,0.22013 -0.82021,0.34008 -1.25025,0.34008 -0.43991,0 -0.87982,-0.11995 -1.25976,-0.34008 -0.3803,-0.21978 -0.69004,-0.52987 -0.91017,-0.90982 -0.22013,-0.37994 -0.34008,-0.8202 -0.34008,-1.25024 0,-0.43991 0.11995,-0.87983 0.34008,-1.25977 0.22013,-0.37994 0.52987,-0.69003 0.91017,-0.91017 0.37994,-0.21978 0.81985,-0.34007 1.25976,-0.34007 0.43004,0 0.86995,0.12029 1.25025,0.34007 0.37994,0.22014 0.68968,0.53023 0.90981,0.91017 0.22014,0.37994 0.34008,0.81986 0.34008,1.25977 z"
       style="fill:#729fcf;fill-opacity:1;fill-rule:evenodd;stroke:none;stroke-width:0.352778"
       id="path314" />
    <g
       id="g316"
       transform="matrix(0.35277777,0,0,-0.35277777,58.861517,389.27367)">
      <path
         d="m 375.619,494.617 c 0,-1.219 -0.34,-2.467 -0.964,-3.544 -0.624,-1.077 -1.502,-1.956 -2.579,-2.579 -1.078,-0.624 -2.325,-0.964 -3.544,-0.964 -1.247,0 -2.494,0.34 -3.571,0.964 -1.078,0.623 -1.956,1.502 -2.58,2.579 -0.624,1.077 -0.964,2.325 -0.964,3.544 0,1.247 0.34,2.494 0.964,3.571 0.624,1.077 1.502,1.956 2.58,2.58 1.077,0.623 2.324,0.964 3.571,0.964 1.219,0 2.466,-0.341 3.544,-0.964 1.077,-0.624 1.955,-1.503 2.579,-2.58 0.624,-1.077 0.964,-2.324 0.964,-3.571 z"
         style="fill:none;stroke:#3465a4;stroke-width:0.75;stroke-linecap:butt;stroke-linejoin:round;stroke-miterlimit:10;stroke-dasharray:none;stroke-opacity:1"
         id="path318" />
    </g>
    <path
       d="m 203.87153,197.2839 c 0,0.43003 -0.11995,0.86995 -0.34008,1.24989 -0.21978,0.38029 -0.52987,0.69003 -0.90982,0.91016 -0.38029,0.22014 -0.8202,0.34008 -1.26012,0.34008 -0.43003,0 -0.86995,-0.11994 -1.24989,-0.34008 -0.37994,-0.22013 -0.69003,-0.52987 -0.91017,-0.91016 -0.21978,-0.37994 -0.34007,-0.81986 -0.34007,-1.24989 0,-0.43992 0.12029,-0.87983 0.34007,-1.26013 0.22014,-0.37994 0.53023,-0.68968 0.91017,-0.90981 0.37994,-0.22013 0.81986,-0.34008 1.24989,-0.34008 0.43992,0 0.87983,0.11995 1.26012,0.34008 0.37995,0.22013 0.69004,0.52987 0.90982,0.90981 0.22013,0.3803 0.34008,0.82021 0.34008,1.26013 z"
       style="fill:#729fcf;fill-opacity:1;fill-rule:evenodd;stroke:none;stroke-width:0.352778"
       id="path320" />
    <g
       id="g322"
       transform="matrix(0.35277777,0,0,-0.35277777,58.861517,389.27367)">
      <path
         d="m 411.052,544.223 c 0,-1.219 -0.34,-2.466 -0.964,-3.543 -0.623,-1.078 -1.502,-1.956 -2.579,-2.58 -1.078,-0.624 -2.325,-0.964 -3.572,-0.964 -1.219,0 -2.466,0.34 -3.543,0.964 -1.077,0.624 -1.956,1.502 -2.58,2.58 -0.623,1.077 -0.964,2.324 -0.964,3.543 0,1.247 0.341,2.494 0.964,3.572 0.624,1.077 1.503,1.955 2.58,2.579 1.077,0.624 2.324,0.964 3.543,0.964 1.247,0 2.494,-0.34 3.572,-0.964 1.077,-0.624 1.956,-1.502 2.579,-2.579 0.624,-1.078 0.964,-2.325 0.964,-3.572 z"
         style="fill:none;stroke:#3465a4;stroke-width:0.75;stroke-linecap:butt;stroke-linejoin:round;stroke-miterlimit:10;stroke-dasharray:none;stroke-opacity:1"
         id="path324" />
    </g>
    <path
       d="m 126.37154,184.77404 c 0,0.43992 -0.11994,0.87983 -0.34008,1.25977 -0.21978,0.3803 -0.52987,0.69004 -0.90981,0.91017 -0.3803,0.22013 -0.82021,0.34008 -1.25025,0.34008 -0.43991,0 -0.87982,-0.11995 -1.25976,-0.34008 -0.3803,-0.22013 -0.69004,-0.52987 -0.91017,-0.91017 -0.21978,-0.37994 -0.34008,-0.81985 -0.34008,-1.25977 0,-0.43003 0.1203,-0.86995 0.34008,-1.25024 0.22013,-0.37994 0.52987,-0.68968 0.91017,-0.90981 0.37994,-0.22014 0.81985,-0.34008 1.25976,-0.34008 0.43004,0 0.86995,0.11994 1.25025,0.34008 0.37994,0.22013 0.69003,0.52987 0.90981,0.90981 0.22014,0.38029 0.34008,0.82021 0.34008,1.25024 z"
       style="fill:#729fcf;fill-opacity:1;fill-rule:evenodd;stroke:none;stroke-width:0.352778"
       id="path326" />
    <g
       id="g328"
       transform="matrix(0.35277777,0,0,-0.35277777,58.861517,389.27367)">
      <path
         d="m 191.367,579.684 c 0,-1.247 -0.34,-2.494 -0.964,-3.571 -0.623,-1.078 -1.502,-1.956 -2.579,-2.58 -1.078,-0.624 -2.325,-0.964 -3.544,-0.964 -1.247,0 -2.494,0.34 -3.571,0.964 -1.078,0.624 -1.956,1.502 -2.58,2.58 -0.623,1.077 -0.964,2.324 -0.964,3.571 0,1.219 0.341,2.466 0.964,3.544 0.624,1.077 1.502,1.955 2.58,2.579 1.077,0.624 2.324,0.964 3.571,0.964 1.219,0 2.466,-0.34 3.544,-0.964 1.077,-0.624 1.956,-1.502 2.579,-2.579 0.624,-1.078 0.964,-2.325 0.964,-3.544 z"
         style="fill:none;stroke:#3465a4;stroke-width:0.75;stroke-linecap:butt;stroke-linejoin:round;stroke-miterlimit:10;stroke-dasharray:none;stroke-opacity:1"
         id="path330" />
    </g>
    <path
       d="m 175.37167,187.78394 c 0,1.75013 -0.46002,3.48016 -1.34021,4.99992 -0.87982,1.52012 -2.13994,2.78024 -3.66006,3.66007 -1.51977,0.88018 -3.24979,1.33985 -4.99992,1.33985 -1.76001,0 -3.49003,-0.45967 -5.0098,-1.33985 -1.52012,-0.87983 -2.78024,-2.13995 -3.66007,-3.66007 -0.88018,-1.51976 -1.3402,-3.24979 -1.3402,-4.99992 0,-1.76 0.46002,-3.49003 1.3402,-5.01015 0.87983,-1.51976 2.13995,-2.77989 3.66007,-3.65971 1.51977,-0.88018 3.24979,-1.34021 5.0098,-1.34021 1.75013,0 3.48015,0.46003 4.99992,1.34021 1.52012,0.87982 2.78024,2.13995 3.66006,3.65971 0.88019,1.52012 1.34021,3.25015 1.34021,5.00028 z"
       style="fill:#e6e905;fill-opacity:1;fill-rule:evenodd;stroke:none;stroke-width:0.352778"
       id="path332" />
    <g
       id="g334"
       transform="matrix(0.35277777,0,0,-0.35277777,58.861517,389.27367)">
      <path
         d="m 330.265,571.152 c 0,-4.961 -1.304,-9.865 -3.799,-14.173 -2.494,-4.309 -6.066,-7.881 -10.375,-10.375 -4.308,-2.495 -9.212,-3.798 -14.173,-3.798 -4.989,0 -9.893,1.303 -14.201,3.798 -4.309,2.494 -7.881,6.066 -10.375,10.375 -2.495,4.308 -3.799,9.212 -3.799,14.173 0,4.989 1.304,9.893 3.799,14.202 2.494,4.308 6.066,7.88 10.375,10.374 4.308,2.495 9.212,3.799 14.201,3.799 4.961,0 9.865,-1.304 14.173,-3.799 4.309,-2.494 7.881,-6.066 10.375,-10.374 2.495,-4.309 3.799,-9.213 3.799,-14.174 z"
         style="fill:none;stroke:#706e0c;stroke-width:0.75;stroke-linecap:butt;stroke-linejoin:round;stroke-miterlimit:10;stroke-dasharray:none;stroke-opacity:1"
         id="path336" />
    </g>
    <g
       id="g338"
       transform="matrix(0.35277777,0,0,-0.35277777,58.861517,386.09865)">
      <path
         d="m 85.039,388.346 57.09,76.138"
         style="fill:none;stroke:#000000;stroke-width:2.29602;stroke-linecap:butt;stroke-linejoin:round;stroke-miterlimit:10;stroke-dasharray:none;stroke-opacity:1"
         id="path340" />
    </g>
    <path
       d="m 107.1515,221.19903 4.21005,-2.10008 -0.83996,4.62985 z"
       style="fill:#000000;fill-opacity:1;fill-rule:evenodd;stroke:none;stroke-width:0.352778"
       id="path342" />
    <g
       id="g350"
       transform="matrix(0.35277777,0,0,-0.35277777,58.861517,389.27367)">
      <path
         d="M 425.197,409.606 321.25,474.576"
         style="fill:none;stroke:#000000;stroke-width:2.29602;stroke-linecap:butt;stroke-linejoin:round;stroke-miterlimit:10;stroke-dasharray:none;stroke-opacity:1"
         id="path352" />
    </g>
    <path
       d="m 171.31155,223.79409 -2.45004,-4.02026 4.69018,0.45015 z"
       style="fill:#000000;fill-opacity:1;fill-rule:evenodd;stroke:none;stroke-width:0.352778"
       id="path354" />
    <g
       id="g356"
       transform="matrix(0.49880618,0,0,-0.49880618,9.1786266,437.50209)">
      <text
         xml:space="preserve"
         style="font-style:normal;font-variant:normal;font-weight:normal;font-stretch:normal;font-size:18px;font-family:sans-serif;-inkscape-font-specification:'sans-serif, Normal';font-variant-ligatures:normal;font-variant-caps:normal;font-variant-numeric:normal;font-variant-east-asian:normal;text-align:center;text-anchor:middle;fill:#000000;fill-opacity:0.905882;stroke-width:0.530433"
         x="418.42609"
         y="-364.22458"
         id="text450"
         transform="scale(1,-1)"><tspan
           sodipodi:role="line"
           id="tspan448"
           style="stroke-width:0.530433"
           x="418.42609"
           y="-364.22458">Mitochondria</tspan></text>
    </g>
    <g
       id="g362"
       transform="matrix(0.35277777,0,0,-0.35277777,58.861517,389.27367)">
      <path
         d="M 481.89,735.59 319.861,580.336"
         style="fill:none;stroke:#000000;stroke-width:2.29602;stroke-linecap:butt;stroke-linejoin:round;stroke-miterlimit:10;stroke-dasharray:none;stroke-opacity:1"
         id="path364" />
    </g>
    <path
       d="m 173.37142,185.874 -4.50991,1.39983 1.58997,-4.43971 z"
       style="fill:#000000;fill-opacity:1;fill-rule:evenodd;stroke:none;stroke-width:0.352778"
       id="path366" />
    <g
       id="g368"
       transform="matrix(0.53991472,0,0,-0.53991472,-28.000612,552.54553)">
      <text
         xml:space="preserve"
         style="font-style:normal;font-variant:normal;font-weight:normal;font-stretch:normal;font-size:16.6295px;font-family:sans-serif;-inkscape-font-specification:'sans-serif, Normal';font-variant-ligatures:normal;font-variant-caps:normal;font-variant-numeric:normal;font-variant-east-asian:normal;text-align:center;text-anchor:middle;fill:#000000;fill-opacity:0.905882;stroke-width:0.490047"
         x="477.27191"
         y="-786.58783"
         id="text454"
         transform="scale(1,-1)"><tspan
           sodipodi:role="line"
           id="tspan452"
           style="stroke-width:0.490047"
           x="477.27191"
           y="-786.58783">Nucleus</tspan></text>
    </g>
    <g
       id="g374"
       transform="matrix(0.35277777,0,0,-0.35277777,58.8765,399.46786)">
      <path
         d="m 425.74953,437.90691 -51.109,76.366"
         style="fill:none;stroke:#000000;stroke-width:2.29602;stroke-linecap:butt;stroke-linejoin:round;stroke-miterlimit:10;stroke-dasharray:none;stroke-opacity:1"
         id="path376" />
    </g>
    <path
       d="m 189.45138,219.44398 -0.58984,-4.67007 4.0901,2.3301 z"
       style="fill:#000000;fill-opacity:1;fill-rule:evenodd;stroke:none;stroke-width:0.352778"
       id="path378" />
    <g
       id="g380"
       transform="matrix(0.35277777,0,0,-0.35277777,58.861517,389.27367)">
      <path
         d="M 425.792,409.01 405.808,526.195"
         style="fill:none;stroke:#000000;stroke-width:2.29602;stroke-linecap:butt;stroke-linejoin:round;stroke-miterlimit:10;stroke-dasharray:none;stroke-opacity:1"
         id="path382" />
    </g>
    <path
       d="m 199.99168,204.27383 1.36983,-4.50003 2.77989,3.80012 z"
       style="fill:#000000;fill-opacity:1;fill-rule:evenodd;stroke:none;stroke-width:0.352778"
       id="path384" />
    <text
       xml:space="preserve"
       style="font-style:normal;font-variant:normal;font-weight:normal;font-stretch:normal;font-size:8.9785px;font-family:sans-serif;-inkscape-font-specification:'sans-serif, Normal';font-variant-ligatures:normal;font-variant-caps:normal;font-variant-numeric:normal;font-variant-east-asian:normal;text-align:center;text-anchor:middle;fill:#000000;fill-opacity:0.905882;stroke-width:0.264583"
       x="85.849968"
       y="260.05725"
       id="text458"><tspan
         sodipodi:role="line"
         id="tspan456"
         style="stroke-width:0.264583"
         x="85.849968"
         y="260.05725">Cell</tspan></text>
  </g>
</svg>
